<svg width="241" height="103" viewBox="0 0 241 103" fill="none" xmlns="http://www.w3.org/2000/svg">
<path d="M66.5571 0H87.0364V102.396H66.5571V0Z" fill="white"/>
<path fill-rule="evenodd" clip-rule="evenodd" d="M20.4792 20.4791V40.9583H0V102.396H20.4792V76.7966H40.9583V102.396H61.4375V40.9583H40.9583V20.4791H20.4792ZM40.9583 40.9583V56.3175L20.4792 56.3176V40.9583H40.9583Z" fill="white"/>
<path fill-rule="evenodd" clip-rule="evenodd" d="M92.156 15.3594V102.396H112.635L112.635 76.7966H153.594V35.8385H133.114V15.3594H92.156ZM133.114 35.8385V56.3176H112.635V35.8384L133.114 35.8385Z" fill="white"/>
<path d="M138.234 81.9164V102.396H179.192L179.192 61.4374H199.671V40.9583H158.713V81.9164H138.234Z" fill="white"/>
<path fill-rule="evenodd" clip-rule="evenodd" d="M199.671 30.7186H207.351L207.351 25.5989H222.71L222.71 30.7186H225.27V25.5989H240.629V40.9583H225.27V33.2786H222.71L222.71 40.9583H207.351L207.351 33.2786H202.231V38.3984H199.671V30.7186ZM227.83 28.1588V38.3984L232.95 38.3983V28.1587L227.83 28.1588ZM209.911 28.1588L215.031 28.1587V38.3983L209.911 38.3984V28.1588Z" fill="white"/>
</svg>
