<?xml version="1.0" standalone="no"?>
<!DOCTYPE svg PUBLIC "-//W3C//DTD SVG 20010904//EN"
 "http://www.w3.org/TR/2001/REC-SVG-20010904/DTD/svg10.dtd">
<svg version="1.0" xmlns="http://www.w3.org/2000/svg"
 width="241.000000pt" height="241.000000pt" viewBox="0 0 241.000000 241.000000"
 preserveAspectRatio="xMidYMid meet">
<metadata>
Created by potrace 1.14, written by Peter Selinger 2001-2017
</metadata>
<g transform="translate(0.000000,241.000000) scale(0.100000,-0.100000)"
fill="#000000" stroke="none">
<path d="M665 1213 c0 -410 2 -509 13 -513 7 -3 52 -5 100 -4 l87 1 3 511 2
512 -103 0 -102 0 0 -507z"/>
<path d="M924 1556 c-2 -6 -3 -202 -2 -435 l3 -425 97 -1 c58 0 99 4 101 10 2
5 4 61 3 123 -1 63 3 116 7 119 5 3 97 5 206 5 l197 0 0 204 0 204 -103 0
-103 0 0 103 0 103 -201 0 c-133 0 -202 -3 -205 -10z m404 -298 l-3 -102 -92
1 c-51 1 -96 1 -100 2 -6 1 -9 185 -4 199 1 1 46 2 101 2 l101 0 -3 -102z"/>
<path d="M209 1505 c-1 -5 -2 -50 -3 -100 l-1 -90 -103 -3 -102 -3 2 -306 3
-307 100 0 100 -1 0 122 c0 67 3 124 6 127 3 4 39 7 80 7 133 2 118 17 121
-128 l3 -127 93 0 c52 -1 97 1 101 4 3 3 6 141 6 308 l0 302 -102 0 -103 0 0
103 0 103 -100 0 c-61 0 -101 -4 -101 -11z m201 -270 c0 -53 -4 -75 -12 -76
-19 -1 -161 -1 -178 0 -13 1 -16 15 -15 76 l0 75 103 0 102 0 0 -75z"/>
<path d="M2078 1459 c-6 -4 -8 -14 -5 -23 4 -11 -1 -18 -18 -22 -13 -3 -28 -3
-34 0 -5 4 -13 1 -18 -6 -13 -21 -11 -67 3 -72 10 -4 14 3 14 22 0 22 5 28 25
30 26 2 28 -3 27 -50 l-1 -28 80 0 79 0 0 40 c0 22 5 40 10 40 6 0 10 -18 10
-40 l0 -40 78 0 78 0 -1 77 0 77 -65 1 c-82 1 -90 -2 -90 -31 0 -33 -18 -30
-22 3 -3 27 -5 27 -71 28 -38 0 -74 -3 -79 -6z m72 -68 c0 -48 -10 -63 -37
-54 -8 3 -13 23 -13 54 0 46 2 49 25 49 23 0 25 -3 25 -49z m180 0 c0 -40 -4
-50 -19 -54 -27 -7 -31 0 -31 55 0 45 2 48 25 48 23 0 25 -3 25 -49z"/>
<path d="M1589 1303 c0 -5 0 -97 0 -205 l1 -198 -104 0 -103 0 1 -102 1 -102
193 0 c107 -1 198 2 204 5 6 4 11 83 12 205 l1 199 95 1 c52 1 98 2 101 3 3 0
5 45 5 99 l-1 97 -202 3 c-112 1 -203 -1 -204 -5z"/>
</g>
</svg>
